<?xml version="1.0" encoding="UTF-8" standalone="no"?>
<!-- Created with Inkscape (http://www.inkscape.org/) -->

<svg
   width="198.60915mm"
   height="78.347755mm"
   viewBox="0 0 198.60915 78.347754"
   version="1.1"
   id="svg1"
   xml:space="preserve"
   xmlns="http://www.w3.org/2000/svg"
   xmlns:svg="http://www.w3.org/2000/svg"><defs
     id="defs1"><clipPath
       clipPathUnits="userSpaceOnUse"
       id="clipPath164"><path
         d="M 0,728.504 H 515.905 V 0 H 0 Z"
         transform="translate(-27.8335,-71.042999)"
         id="path164" /></clipPath><clipPath
       clipPathUnits="userSpaceOnUse"
       id="clipPath166"><path
         d="M 0,728.504 H 515.905 V 0 H 0 Z"
         transform="translate(-43.751501,-60.953099)"
         id="path166" /></clipPath><clipPath
       clipPathUnits="userSpaceOnUse"
       id="clipPath168"><path
         d="M 0,728.504 H 515.905 V 0 H 0 Z"
         transform="translate(-51.003401,-65.941402)"
         id="path168" /></clipPath><clipPath
       clipPathUnits="userSpaceOnUse"
       id="clipPath170"><path
         d="M 0,728.504 H 515.905 V 0 H 0 Z"
         transform="translate(-59.080102,-71.042999)"
         id="path170" /></clipPath><clipPath
       clipPathUnits="userSpaceOnUse"
       id="clipPath172"><path
         d="M 0,728.504 H 515.905 V 0 H 0 Z"
         transform="translate(-68.559101,-71.042999)"
         id="path172" /></clipPath><clipPath
       clipPathUnits="userSpaceOnUse"
       id="clipPath174"><path
         d="M 0,728.504 H 515.905 V 0 H 0 Z"
         transform="translate(-83.7256,-71.336902)"
         id="path174" /></clipPath><clipPath
       clipPathUnits="userSpaceOnUse"
       id="clipPath176"><path
         d="M 0,728.504 H 515.905 V 0 H 0 Z"
         transform="translate(-92.999005,-69.406304)"
         id="path176" /></clipPath><clipPath
       clipPathUnits="userSpaceOnUse"
       id="clipPath178"><path
         d="M 0,728.504 H 515.905 V 0 H 0 Z"
         transform="translate(-104.7886,-64.828102)"
         id="path178" /></clipPath><clipPath
       clipPathUnits="userSpaceOnUse"
       id="clipPath180"><path
         d="M 0,728.504 H 515.905 V 0 H 0 Z"
         transform="translate(-115.53081,-66.364304)"
         id="path180" /></clipPath><clipPath
       clipPathUnits="userSpaceOnUse"
       id="clipPath182"><path
         d="M 0,728.504 H 515.905 V 0 H 0 Z"
         transform="translate(-26.9263,-78.056602)"
         id="path182" /></clipPath><clipPath
       clipPathUnits="userSpaceOnUse"
       id="clipPath184"><path
         d="M 0,728.504 H 515.905 V 0 H 0 Z"
         transform="translate(-77.776899,-80.003902)"
         id="path184" /></clipPath><clipPath
       clipPathUnits="userSpaceOnUse"
       id="clipPath186"><path
         d="M 0,728.504 H 515.905 V 0 H 0 Z"
         id="path186" /></clipPath></defs><g
     id="g274"
     transform="matrix(1.5958912,0,0,1.5958912,1031.4723,-1466.7333)"
     style="fill:#0e0e0e;fill-opacity:1"><g
       id="g89"
       transform="translate(144.07967,-10.708624)"
       style="fill:#0e0e0e;fill-opacity:1"><path
         id="path3"
         d="M 0,0 H 0.849 L 8.643,-9.507 H 8.674 V 0 h 0.673 v -10.441 h -0.85 l -7.794,9.505 h -0.03 v -9.505 H 0 Z"
         style="fill:#0e0e0e;fill-opacity:1;fill-rule:nonzero;stroke:none"
         transform="matrix(1.3333333,0,0,-1.3333333,-789.20001,964.56105)"
         clip-path="url(#clipPath164)" /><path
         id="path6"
         d="M 0,0 C 3.144,0 4.869,2.368 4.869,4.87 4.869,7.372 3.144,9.741 0,9.741 -3.146,9.741 -4.872,7.372 -4.872,4.87 -4.872,2.368 -3.146,0 0,0 m 0,10.324 c 4.242,0 5.543,-3.406 5.543,-5.454 0,-2.048 -1.301,-5.456 -5.543,-5.456 -4.242,0 -5.544,3.408 -5.544,5.456 0,2.048 1.302,5.454 5.544,5.454"
         style="fill:#0e0e0e;fill-opacity:1;fill-rule:nonzero;stroke:none"
         transform="matrix(1.3333333,0,0,-1.3333333,-767.97601,978.01425)"
         clip-path="url(#clipPath166)" /><path
         id="path9"
         d="m 0,0 h 4.548 c 0.66,0 2.971,0 2.971,2.384 0,1.695 -1.318,2.135 -2.794,2.135 H 0 Z M -0.673,5.102 H 4.666 C 6.669,5.102 8.19,4.532 8.19,2.339 8.19,1.257 7.533,0.087 6.055,-0.248 V -0.28 C 7.328,-0.44 8,-1.317 8.015,-2.443 8.044,-4.347 8.103,-4.96 8.308,-5.34 H 7.635 C 7.444,-5.165 7.386,-4.507 7.342,-2.913 7.298,-1.099 6.713,-0.587 4.65,-0.587 H 0 V -5.34 h -0.673 z"
         style="fill:#0e0e0e;fill-opacity:1;fill-rule:nonzero;stroke:none"
         transform="matrix(1.3333333,0,0,-1.3333333,-758.30681,971.36318)"
         clip-path="url(#clipPath168)" /><path
         id="path12"
         d="M 0,0 H 9.096 V -0.583 H 4.885 v -9.858 H 4.212 v 9.858 H 0 Z"
         style="fill:#0e0e0e;fill-opacity:1;fill-rule:nonzero;stroke:none"
         transform="matrix(1.3333333,0,0,-1.3333333,-747.53781,964.56105)"
         clip-path="url(#clipPath170)" /><path
         id="path14"
         d="m 0,0 h 0.674 v -4.648 h 8 V 0 H 9.345 V -10.441 H 8.674 v 5.207 h -8 v -5.207 H 0 Z"
         style="fill:#0e0e0e;fill-opacity:1;fill-rule:nonzero;stroke:none"
         transform="matrix(1.3333333,0,0,-1.3333333,-734.89923,964.56105)"
         clip-path="url(#clipPath172)" /><path
         id="path16"
         d="m 0,0 c 1.609,0 4.826,-0.294 5.104,-3.319 h -2.37 c -0.072,0.803 -0.804,1.68 -2.632,1.68 -1.464,0 -2.429,-0.452 -2.429,-1.432 0,-2.457 7.782,-0.103 7.782,-4.563 0,-2.692 -2.793,-3.392 -5.018,-3.392 -3.757,0 -5.264,1.473 -5.294,3.668 h 2.371 c 0.057,-1.371 1.198,-2.031 2.997,-2.031 1.332,0 2.574,0.394 2.574,1.535 0,2.589 -7.693,0.336 -7.693,4.622 C -4.608,-0.907 -2.545,0 0,0"
         style="fill:#0e0e0e;fill-opacity:1;fill-rule:nonzero;stroke:none"
         transform="matrix(1.3333333,0,0,-1.3333333,-714.67723,964.16918)"
         clip-path="url(#clipPath174)" /><path
         id="path18"
         d="M 0,0 H -3.92 V 1.637 H 6.113 V 0 H 2.194 V -8.805 H 0 Z"
         style="fill:#0e0e0e;fill-opacity:1;fill-rule:nonzero;stroke:none"
         transform="matrix(1.3333333,0,0,-1.3333333,-702.31263,966.74331)"
         clip-path="url(#clipPath176)" /><path
         id="path20"
         d="M 0,0 -1.785,4.401 -3.598,0 Z m -3.058,6.215 h 2.605 L 4.198,-4.227 H 1.755 l -1.098,2.589 h -4.914 l -1.082,-2.589 h -2.368 z"
         style="fill:#0e0e0e;fill-opacity:1;fill-rule:nonzero;stroke:none"
         transform="matrix(1.3333333,0,0,-1.3333333,-686.5932,972.84758)"
         clip-path="url(#clipPath178)" /><path
         id="path22"
         d="M 0,0 C 1.213,0 1.873,0.364 1.873,1.535 1.873,2.618 1.155,3.042 0,3.042 H -3.788 V 0 Z m -5.982,4.679 h 6.611 c 2.663,0 3.524,-1.212 3.524,-2.837 0,-1.361 -0.746,-2.206 -1.725,-2.513 v -0.032 c 1.243,-0.263 1.521,-1.343 1.521,-2.824 0,-0.495 0.015,-1.666 0.438,-2.236 H 2.019 c -0.162,0.292 -0.265,0.821 -0.265,1.579 0,1.492 -0.203,2.545 -1.812,2.545 h -3.73 v -4.124 h -2.194 z"
         style="fill:#0e0e0e;fill-opacity:1;fill-rule:nonzero;stroke:none"
         transform="matrix(1.3333333,0,0,-1.3333333,-672.27026,970.79931)"
         clip-path="url(#clipPath180)" /><path
         id="path25"
         d="m 0,0 c 0,0 4.534,1.674 7.318,2.813 v 8.004 H 0 v 1.877 h 7.318 v 6.38 H 9.379 V -3.87 L 7.318,-3.872 V 0.69 C 5.693,0.027 3.066,-1.048 0,-2.311 Z"
         style="fill:#0e0e0e;fill-opacity:1;fill-rule:nonzero;stroke:none"
         transform="matrix(1.3333333,0,0,-1.3333333,-790.40961,955.20958)"
         clip-path="url(#clipPath182)" /><path
         id="path27"
         d="m 0,0 c -0.544,0.052 -1.102,-0.124 -1.677,-0.532 -0.844,-0.624 -2.917,-2.489 -4.223,-3.76 0.224,2.968 0.707,9.477 0.861,12.271 h -12.275 c 0.067,1.084 0.132,2.399 0.191,3.942 l 15.411,-0.004 v 0.004 H 14.939 C 10.808,7.786 5.827,3.557 0,0 m -19.577,6.633 c -0.276,-4.243 -2.077,-7.749 -5.406,-10.522 v 0.004 h -7.468 c -1.272,0 -1.907,0.572 -1.907,1.725 v 9.342 c 3.337,1.668 6.322,3.585 8.15,4.735 l 6.925,0.004 c -0.076,-2.188 -0.175,-3.948 -0.294,-5.288 m 37.49,7.217 H 10.659 10.402 7.188 l 0.123,0.002 1.856,0.937 C 8.631,15.715 7.789,17.127 7.789,17.127 H 5.227 c 0,0 1.075,-1.84 1.831,-3.277 h -8.853 -11.962 l 1.855,0.937 c -0.531,0.925 -1.372,2.34 -1.372,2.34 h -2.565 c 0,0 1.072,-1.843 1.828,-3.277 h -13.256 c -2.009,-1.416 -4.778,-3.326 -7.091,-4.508 v 7.785 h -2.058 V -2.389 c 0,-2.286 1.158,-3.428 3.48,-3.428 h 9.261 c 3.727,2.981 5.803,6.946 6.222,11.89 h 10.124 c -0.152,-2.91 -0.828,-11.89 -0.828,-11.89 h 2.144 1.897 c 0.984,1.186 2.38,2.642 3.53,3.707 0.205,0.189 0.392,0.18 0.561,-0.024 2.085,-2.32 4.914,-3.548 8.486,-3.683 5.778,-0.067 9.738,0.023 9.738,0.023 v 1.833 c 0,0 -4.866,0.007 -8.9,0.076 -3.201,0.131 -5.65,1.023 -7.341,2.664 6.106,3.738 11.425,8.389 15.955,13.142 z"
         style="fill:#0e0e0e;fill-opacity:1;fill-rule:nonzero;stroke:none"
         transform="matrix(1.3333333,0,0,-1.3333333,-722.60883,952.61318)"
         clip-path="url(#clipPath184)" /><path
         id="path29"
         d="m 100.447,89.128 h 15.244 v 2.261 h -15.244 z m 15.244,6.225 h -15.244 l -0.001,-2.236 h 15.245 z m -17.176,1.778 h 19.11 V 86.459 h -1.934 v 0.889 H 98.515 Z M 95.976,76.043 h 11.535 v 2.49 h -8.284 l 0.004,1.826 h 8.28 v 2.34 h -7.396 c -0.987,-1.451 -2.057,-2.779 -3.201,-3.987 -0.404,0.452 -0.896,0.956 -1.474,1.496 1.95,1.932 3.567,4.187 4.855,6.761 l 1.932,-0.816 c -0.306,-0.557 -0.614,-1.101 -0.931,-1.626 h 6.215 v 2.262 h 2.032 v -2.262 l 8.867,0.003 v -1.831 h -8.867 v -2.34 l 8.867,0.001 v -1.827 h -8.867 v -2.494 l 10.721,0.004 V 74.21 H 95.976 Z"
         style="fill:#0e0e0e;fill-opacity:1;fill-rule:nonzero;stroke:none"
         transform="matrix(1.3333333,0,0,-1.3333333,-826.31131,1059.2851)"
         clip-path="url(#clipPath186)" /></g></g></svg>
